<?xml version="1.0" encoding="UTF-8"?>
<svg xmlns="http://www.w3.org/2000/svg" version="1.1" viewBox="0 0 51 51">
  <defs>
    <style>
      .cls-1 {
        fill: none;
      }

      .cls-2 {
        fill: #00aeef;
      }
    </style>
  </defs>
  <!-- Generator: Adobe Illustrator 28.6.0, SVG Export Plug-In . SVG Version: 1.2.0 Build 709)  -->
  <g>
    <g id="Layer_1">
      <rect class="cls-1" x="6.3" y="6.2" width="2.9" height="11.8"/>
      <path class="cls-1" d="M16.9,18.2c2,0,3.4-.6,4.8-2.1v-.2c.1,0-1.8-1.9-1.8-1.9h-.2c-.9.9-1.6,1.4-2.8,1.4-1.8,0-3.1-1.4-3.1-3.4s1.3-3.4,3.1-3.4,1.8.4,2.8,1.2h.2c0,.1,1.8-1.8,1.8-1.8h-.1c-1.3-1.4-2.7-2-4.6-2-3.5,0-6.1,2.6-6.1,6.1h0c0,3.5,2.5,6.1,6,6.1Z"/>
      <path class="cls-1" d="M40.9,18.2c2,0,3.4-.6,4.8-2.1v-.2c0,0-1.7-1.8-1.7-1.8h-.2c-.8.9-1.6,1.4-2.8,1.4-1.8,0-3.1-1.4-3.1-3.4s1.3-3.4,3.1-3.4,1.8.4,2.8,1.2h.2c0,.1,1.8-1.9,1.8-1.9h0c-1.3-1.4-2.7-2-4.7-2-3.5,0-6.1,2.6-6.1,6.1h0c0,3.5,2.6,6.1,6,6.1Z"/>
      <path class="cls-1" d="M33.7,14.7c0-1.4-.6-2.3-1.9-2.9.9-.6,1.3-1.4,1.3-2.4s-.3-1.5-.8-2.1c-.7-.7-1.8-1.1-3.1-1.1h-5.5v11.8h5.6c2.8,0,4.4-1.2,4.4-3.3ZM26.3,8.7h2.4c1,0,1.6.4,1.6,1.1s-.6,1.2-1.7,1.2h-2.2v-2.3h0ZM26.3,13.2h2.8c1.2,0,1.8.4,1.8,1.2s-.9,1.2-1.7,1.2h-2.9v-2.4h0Z"/>
      <path class="cls-1" d="M7.4,51h43.6c-31.7-21.4-5.7-26.3,0-26.2v-4.1C-2.1,23.2,6.1,47.8,7.4,51Z"/>
      <path class="cls-2" d="M51,51h0v-26.2c-5.7,0-31.7,4.8,0,26.2Z"/>
      <path class="cls-2" d="M31,14.3c0-.8-.6-1.2-1.8-1.2h-2.8v2.4h2.9c.7.1,1.7-.1,1.7-1.2Z"/>
      <path class="cls-2" d="M51,20.8V7c0-3.8-3.1-7-7-7H7C3.1,0,0,3.2,0,7v37.1c0,3.8,3.1,7,7,7h.4c-1.3-3.3-9.5-27.9,43.6-30.3ZM34.9,12.1c0-3.4,2.6-6.1,6.1-6.1s3.4.6,4.6,1.8l.2.2-1.9,2.1h0c-1-.9-1.8-1.3-2.8-1.3-1.8,0-3.1,1.4-3.1,3.4s1.3,3.4,3.1,3.4,2-.5,2.8-1.3h.2c0-.1,1.9,1.8,1.9,1.8v.2c-1.5,1.5-2.9,2.1-4.9,2.1-3.5-.2-6.1-2.8-6.1-6.3h0ZM23.6,6.2h5.5c1.3,0,2.4.4,3.1,1.1.6.6.8,1.2.8,2.1s-.4,1.8-1.3,2.4c1.3.6,1.9,1.5,1.9,2.9,0,2.1-1.6,3.3-4.5,3.3h-5.6V6.2h0ZM10.8,12.1c0-3.4,2.7-6.1,6.2-6.1s3.4.6,4.6,1.8v.2c.1,0-1.8,2.1-1.8,2.1h-.1c-.9-.9-1.8-1.3-2.8-1.3-1.8,0-3.1,1.4-3.1,3.4s1.3,3.4,3.1,3.4,2-.5,2.8-1.3h.2c0-.1,1.9,1.8,1.9,1.8v.2c-1.5,1.5-2.9,2.1-4.9,2.1-3.5-.2-6.1-2.8-6.1-6.3h0ZM6.3,6.2h2.9v11.8h-2.9V6.2Z"/>
      <path class="cls-2" d="M30.3,9.8c0-.7-.6-1.1-1.6-1.1h-2.4v2.3h2.2c1.2,0,1.8-.4,1.8-1.2Z"/>
    </g>
  </g>
</svg>