<svg id="Layer_1" data-name="Layer 1" xmlns="http://www.w3.org/2000/svg" xmlns:xlink="http://www.w3.org/1999/xlink" viewBox="0 0 300 528.7"><defs><style>.cls-1{fill:url(#New_Gradient_Swatch_1);}.cls-2{fill:url(#linear-gradient);}.cls-3{fill:url(#New_Gradient_Swatch_1-2);}.cls-4{opacity:0.52;}</style><linearGradient id="New_Gradient_Swatch_1" x1="393.94" y1="454.52" x2="606.07" y2="242.39" gradientUnits="userSpaceOnUse"><stop offset="0" stop-color="#15ffe1"/><stop offset="0" stop-color="#16f9e2"/><stop offset="0" stop-color="#17f3e3"/><stop offset="1" stop-color="#2a5bff"/><stop offset="1" stop-color="#1f6fff"/><stop offset="1" stop-color="#1485ff"/><stop offset="1" stop-color="#0b96ff"/><stop offset="1" stop-color="#05a1ff"/><stop offset="1" stop-color="#01a8ff"/><stop offset="1" stop-color="#0af"/></linearGradient><linearGradient id="linear-gradient" x1="350" y1="537.8" x2="423.25" y2="537.8" gradientUnits="userSpaceOnUse"><stop offset="0" stop-color="#15ffe1"/><stop offset="1" stop-color="#2a5bff"/><stop offset="1" stop-color="#0071e9"/></linearGradient><linearGradient id="New_Gradient_Swatch_1-2" x1="570.8" y1="542.68" x2="649.69" y2="542.68" xlink:href="#New_Gradient_Swatch_1"/></defs><path d="M649.69,338.68v19.54c.2-3.23.31-6.49.31-9.77S649.89,341.91,649.69,338.68Z" transform="translate(-350 -198.45)"/><path d="M567.6,315.94c-.53-1.1-1.08-2.18-1.66-3.24C566.53,313.76,567.08,314.84,567.6,315.94Z" transform="translate(-350 -198.45)"/><path d="M574.85,343.68h0a1.09,1.09,0,0,0,0-.18A1,1,0,0,1,574.85,343.68Z" transform="translate(-350 -198.45)"/><path class="cls-1" d="M631.23,275.74a150,150,0,0,0-262.49.07h0a150,150,0,1,0,281,82.41V338.68A149.25,149.25,0,0,0,631.23,275.74ZM500,423.45c-.73,0-1.46,0-2.18,0A75,75,0,1,1,509.19,274c.59.07,1.18.15,1.76.24h.14l.48.08c1.66.25,3.3.57,4.92.93.34.07.68.15,1,.24,1.72.4,3.42.88,5.09,1.41.32.09.63.19.95.3l.28.1.74.25.76.26.8.3c1.44.53,2.87,1.11,4.27,1.74q.57.24,1.14.51c1,.46,2,.95,3,1.46.65.33,1.28.67,1.91,1,.47.25.93.51,1.38.79.29.16.57.32.84.49q.76.45,1.5.93c.61.38,1.22.78,1.81,1.18s1,.67,1.48,1q2.22,1.56,4.29,3.29c.47.38.93.76,1.38,1.16s1,.86,1.46,1.3.81.74,1.2,1.12q2.64,2.52,5,5.28c.38.43.75.87,1.1,1.31s.77.93,1.13,1.4c.75.94,1.47,1.9,2.16,2.89.35.48.68,1,1,1.45l.05.07c.28.4.55.82.8,1.23q1.07,1.63,2,3.33c.31.52.6,1.05.88,1.58.59,1.06,1.14,2.14,1.66,3.24.27.54.53,1.09.77,1.65.39.84.75,1.69,1.09,2.55.19.44.37.88.54,1.33.09.23.18.46.26.69.17.46.34.93.5,1.4a71.5,71.5,0,0,1,2.29,7.85c.12.48.22,1,.33,1.46.14.67.28,1.36.4,2s.21,1.18.3,1.78.15,1,.22,1.5a.19.19,0,0,1,0,.08c.06.44.12.89.17,1.34,0,.14,0,.27,0,.41.09.68.15,1.36.2,2,0,.42.08.84.1,1.26h0a1.09,1.09,0,0,1,0,.18,1,1,0,0,1,0,.17h0v.06a4.89,4.89,0,0,1,0,.54c0,.6.06,1.18.08,1.78l0,1c0,.45,0,.89,0,1.34,0,1.62,0,3.22-.16,4.81,0,.4,0,.79-.08,1.18q-.07,1-.18,1.95v0c-.12,1.14-.27,2.28-.44,3.42-.09.58-.18,1.15-.29,1.73-.29,1.69-.65,3.35-1.06,5-.13.53-.26,1.05-.41,1.57-.36,1.33-.75,2.65-1.19,4-.23.71-.48,1.42-.75,2.12,0,0,0,0,0,0-.24.68-.5,1.36-.78,2s-.61,1.51-.94,2.25c-.11.26-.22.51-.34.77h0c-.29.64-.59,1.27-.9,1.9-.47,1-1,2-1.5,2.92-.32.6-.65,1.19-1,1.78a.41.41,0,0,1-.05.09q-.61,1.07-1.26,2.1l-.34.53c-.47.76-1,1.5-1.48,2.24-.21.31-.42.62-.64.92-.88,1.25-1.81,2.47-2.77,3.66-.37.46-.74.91-1.12,1.36s-.77.9-1.16,1.34-.6.67-.91,1a71.26,71.26,0,0,1-5.62,5.51c-.34.31-.69.61-1,.91a73.87,73.87,0,0,1-7.07,5.33c-.49.34-1,.66-1.49,1-1,.63-2,1.24-3,1.83-.52.3-1,.59-1.56.86s-1,.56-1.58.82-1.06.54-1.6.79q-1.62.78-3.27,1.47a74.56,74.56,0,0,1-8.52,3c-.58.17-1.17.33-1.76.47-.43.12-.86.22-1.29.32l-.22.05-.77.18-.83.18c-.33.08-.67.14-1,.2l-.18,0-1.08.2-1.36.23-.7.11-.18,0-1.41.19a73.72,73.72,0,0,1-7.48.59C501.46,423.44,500.73,423.45,500,423.45Z" transform="translate(-350 -198.45)"/><path class="cls-2" d="M423.25,477.35l-2.14,157.54c0,20.71-7.42,43.77-20,61.66s-30.38,30.6-51.09,30.6V348.45A149.91,149.91,0,0,0,423.25,477.35Z" transform="translate(-350 -198.45)"/><path class="cls-3" d="M649.69,358.22V727.15c-20.71,0-40.43-12.71-55-30.6S570.8,655.6,570.8,634.89l2.11-155.32A150,150,0,0,0,649.69,358.22Z" transform="translate(-350 -198.45)"/><path class="cls-4" d="M497.82,423.42A112.47,112.47,0,0,1,387.51,311c0-2.45.09-4.88.24-7.29a98.35,98.35,0,0,0,43.6,75A75,75,0,0,0,497.82,423.42Z" transform="translate(-350 -198.45)"/><path class="cls-4" d="M612.49,311A112.47,112.47,0,0,1,502.18,423.42a73.72,73.72,0,0,0,7.48-.59l1.41-.19.18,0,.7-.11,1.36-.23,1.08-.2.18,0c.33-.06.67-.12,1-.2l.83-.18.77-.18.22-.05c.43-.1.86-.2,1.29-.32.59-.14,1.18-.3,1.76-.47a74.56,74.56,0,0,0,8.52-3q1.65-.69,3.27-1.47c.54-.25,1.07-.51,1.6-.79s1.06-.54,1.58-.82,1-.56,1.56-.86c1-.59,2-1.2,3-1.83.5-.31,1-.63,1.49-1a73.87,73.87,0,0,0,7.07-5.33c.35-.3.7-.6,1-.91a71.26,71.26,0,0,0,5.62-5.51c.31-.33.61-.66.91-1s.78-.89,1.16-1.34.75-.9,1.12-1.36c1-1.19,1.89-2.41,2.77-3.66.22-.3.43-.61.64-.92.51-.74,1-1.48,1.48-2.24l.34-.53q.65-1,1.26-2.1a.41.41,0,0,0,.05-.09c.35-.59.68-1.18,1-1.78.52-1,1-1.93,1.5-2.92.31-.63.61-1.26.9-1.9h0c.12-.26.23-.51.34-.77.33-.74.65-1.49.94-2.25s.54-1.35.78-2c0,0,0,0,0,0,.27-.7.52-1.41.75-2.12.44-1.31.83-2.63,1.19-4,.15-.52.28-1,.41-1.57.41-1.65.77-3.31,1.06-5,.11-.58.2-1.15.29-1.73.17-1.14.32-2.28.44-3.42v0q.1-1,.18-1.95c0-.39.06-.78.08-1.18.11-1.59.16-3.19.16-4.81,0-.45,0-.89,0-1.34l0-1c0-.6,0-1.18-.08-1.78a4.89,4.89,0,0,0,0-.54v-.06h0a1,1,0,0,0,0-.17,1.09,1.09,0,0,0,0-.18h0c0-.42-.05-.84-.1-1.26-.05-.68-.11-1.36-.2-2,0-.14,0-.27,0-.41A98.42,98.42,0,0,0,492.93,198.7c2.34-.14,4.69-.22,7.07-.22A112.49,112.49,0,0,1,612.49,311Z" transform="translate(-350 -198.45)"/></svg>